PathFileType	4	(X/Y/Z)	G:\マイドライブ\biomec\experimentalData\240725\SJ3.trc
DataRate	CameraRate	NumFrames	NumMarkers	Units	OrigDataRate	OrigDataStartFrame	OrigNumFrames
200.00	200.00	      6	52	mm	200.00	805	      1608
Frame#	Time	handR			wrRI			wrRO			elbRI			elbRO			shRF			shRU			shRB			handL			wrLI			wrLO			elbLI			elbLO			shLF			shLU			shLB			toeR			baRI			baRO			heelR			anRI			anRO			knRI			knRO			troR			toeL			baLI			baLO			heelL			anLI			anLO			knLI			knLO			troL			head			earR			earL			clav			c7			ribR			ribL			xiph			ASISR			ASISL			PSISR			PSISL			t8			t11			L1			L3			LS			COX			
		X1	Y1	Z1	X2	Y2	Z2	X3	Y3	Z3	X4	Y4	Z4	X5	Y5	Z5	X6	Y6	Z6	X7	Y7	Z7	X8	Y8	Z8	X9	Y9	Z9	X10	Y10	Z10	X11	Y11	Z11	X12	Y12	Z12	X13	Y13	Z13	X14	Y14	Z14	X15	Y15	Z15	X16	Y16	Z16	X17	Y17	Z17	X18	Y18	Z18	X19	Y19	Z19	X20	Y20	Z20	X21	Y21	Z21	X22	Y22	Z22	X23	Y23	Z23	X24	Y24	Z24	X25	Y25	Z25	X26	Y26	Z26	X27	Y27	Z27	X28	Y28	Z28	X29	Y29	Z29	X30	Y30	Z30	X31	Y31	Z31	X32	Y32	Z32	X33	Y33	Z33	X34	Y34	Z34	X35	Y35	Z35	X36	Y36	Z36	X37	Y37	Z37	X38	Y38	Z38	X39	Y39	Z39	X40	Y40	Z40	X41	Y41	Z41	X42	Y42	Z42	X43	Y43	Z43	X44	Y44	Z44	X45	Y45	Z45	X46	Y46	Z46	X47	Y47	Z47	X48	Y48	Z48	X49	Y49	Z49	X50	Y50	Z50	X51	Y51	Z51	X52	Y52	Z52	

805	4.020	510.26550	764.36896	668.78827	473.74008	695.29333	662.77563	460.34503	731.23413	724.53748	492.87296	577.78485	881.82477	546.62311	535.01392	838.91443	774.09479	744.33002	902.33789	697.82275	704.75281	974.62463	759.60339	708.50867	958.82574	517.44238	1036.94153	673.71234	468.33884	1104.02393	668.90833	465.18762	1059.35181	731.59668	478.98026	1217.32959	881.41736	528.19910	1266.63245	834.68237	762.50604	1063.97974	906.37201	669.10815	1083.40906	974.61908	744.11542	1097.36243	960.88080	715.21204	728.31378	51.71792	632.97760	776.45306	32.23631	607.60974	654.85077	41.95116	429.57199	750.33124	39.97210	527.67493	791.09839	106.90365	505.68781	695.45160	104.40122	707.30444	814.42773	402.83530	720.59009	699.15210	414.43610	410.46738	716.02576	621.96033	708.16223	1083.33374	52.09528	641.66089	1029.18408	52.02863	604.43243	1138.56445	46.28962	424.39917	1055.52258	39.00514	532.42688	1014.85291	123.77235	500.36862	1104.52515	106.22569	705.78662	1002.12805	413.25018	702.69940	1124.62207	426.35400	405.80267	1077.29773	622.69629	775.21295	910.87799	1201.59314	864.36554	831.70026	1055.35278	856.68188	989.78796	1051.01599	781.06122	910.01923	885.61066	726.23492	906.54547	1025.27698	549.74963	794.38617	692.19666	546.35999	1012.97571	695.31128	690.25525	906.35999	748.63257	470.57147	793.92584	613.11475	467.66647	1013.15417	624.97241	332.11417	837.32574	725.08673	337.78940	957.79364	731.66760	541.16901	900.89899	927.31116	453.88666	899.83923	837.71814	412.97302	902.53632	793.76166	371.39520	899.24030	757.49506	320.92102	899.08673	727.34961	245.12648	900.59509	623.81805	
806	4.025	510.39774	764.39325	668.61023	473.90259	695.21539	662.61597	460.50372	731.25372	724.23944	493.23685	577.89014	881.50067	546.95148	535.10168	838.66626	774.37390	744.46143	901.64740	698.08575	704.89441	974.25195	759.93054	708.83044	958.34253	517.54565	1036.89282	673.26666	468.43384	1104.03625	668.44293	465.12015	1059.41736	730.87683	479.23053	1217.36157	880.85834	528.45966	1266.74500	834.17377	763.05890	1064.29541	906.17615	669.29077	1083.51807	974.14545	744.34528	1097.60107	960.30939	715.19110	728.27826	51.73156	632.97443	776.44403	32.23970	607.59424	654.82715	41.96076	429.56625	750.32642	39.97859	527.72064	791.10724	106.82970	505.71860	695.44171	104.37921	707.57037	814.32166	402.78665	720.78131	699.03088	414.27417	410.61325	715.98615	621.76678	708.15594	1083.35132	52.10826	641.68268	1029.22839	52.00309	604.42584	1138.58997	46.29232	424.38702	1055.52710	39.02107	532.46564	1014.82971	123.71210	500.37857	1104.52490	106.21648	705.94739	1002.05194	413.10126	702.90826	1124.60132	426.16299	406.05630	1077.17908	622.37421	775.07782	910.89819	1201.20959	864.56226	831.83954	1054.72473	856.78540	989.92944	1050.54175	781.39850	910.30884	884.93671	726.53003	906.67480	1024.77478	550.26135	795.01599	691.89691	546.56403	1012.95947	694.99237	690.56683	906.43341	748.10095	470.71008	793.87610	612.87244	467.71655	1013.14905	624.58063	332.28867	837.28070	724.83679	337.85733	957.78595	731.38379	541.54016	900.99158	926.89227	454.15662	899.91290	837.38184	413.56381	902.44788	793.12927	371.56079	899.26117	757.20215	321.06503	899.03290	727.04218	245.23050	900.57672	623.52063	
807	4.030	510.54224	764.41925	668.44293	474.07657	695.16589	662.49084	460.71115	731.26691	723.91028	493.54541	577.97784	881.20062	547.25220	535.22174	838.40125	774.61633	744.60419	901.10492	698.40247	705.07813	973.78986	760.21710	709.01324	957.87433	517.67102	1036.84814	672.91260	468.54269	1104.09900	667.99255	465.37927	1059.28503	730.77966	479.53098	1217.43372	880.20093	528.64136	1266.85547	833.56311	762.77100	1064.20972	904.87506	669.67651	1083.54492	973.44861	744.59827	1097.82227	959.69604	715.14960	728.24054	51.80287	632.95758	776.43042	32.25623	607.59210	654.80151	41.96726	429.57275	750.34558	39.97076	527.68610	791.11835	106.84866	505.73810	695.45587	104.34960	707.84418	814.22534	402.74545	720.96252	698.92670	414.08646	410.78336	715.97198	621.56299	708.14050	1083.36523	52.14631	641.68182	1029.23950	52.06081	604.37817	1138.58167	46.36026	424.37231	1055.55664	39.00283	532.46844	1014.83521	123.66978	500.37933	1104.52612	106.14375	706.12842	1001.94019	412.94498	703.13684	1124.54993	425.98178	406.18033	1077.07507	621.94348	775.17035	910.99261	1200.72412	864.85046	832.00940	1054.12341	857.13068	990.06525	1050.12964	781.68286	910.40887	884.32214	726.83087	906.86505	1024.18555	550.40961	795.13959	691.63037	546.72131	1012.93158	694.66437	690.94836	906.57440	747.45215	470.89395	793.90002	612.58972	467.75226	1013.13196	624.17175	332.40991	837.32367	724.63983	337.99280	957.80023	731.05487	541.86951	901.06171	926.50720	454.42480	899.98224	837.06189	413.66025	902.40216	792.83234	371.75903	899.29285	756.90765	321.51392	898.96021	726.61377	245.38454	900.53003	623.21088	
808	4.035	510.69965	764.44684	668.28723	474.28708	695.15320	662.30829	460.95361	731.27350	723.59613	493.84348	578.10785	880.98608	547.56812	535.28137	838.17212	774.82886	744.70258	900.77594	698.84143	705.32416	973.24860	760.57257	709.10040	957.38397	517.82666	1036.86621	672.54413	468.68164	1104.08777	667.51941	465.38361	1059.37610	729.94415	479.70081	1217.52222	879.59357	528.79688	1266.92798	832.98425	762.69299	1064.10388	903.80890	670.06940	1083.69409	972.74609	744.77747	1098.15259	958.91833	715.14362	728.19379	51.83123	632.97308	776.42297	32.25634	607.58289	654.78180	41.95022	429.57553	750.34241	39.98142	527.68695	791.14075	106.81622	505.74884	695.44586	104.30288	708.12524	814.13922	402.70834	721.12408	698.83490	413.89163	410.95587	715.91089	621.37891	708.15173	1083.37085	52.20160	641.65021	1029.25647	52.07253	604.39178	1138.58337	46.34051	424.37341	1055.54651	38.97875	532.47253	1014.82599	123.61670	500.34073	1104.53235	106.11591	706.36462	1001.84784	412.77328	703.36334	1124.49487	425.77264	406.35126	1077.09424	621.61395	775.34680	910.99823	1200.19678	865.00507	832.10651	1053.72278	857.47717	990.25800	1049.64258	782.07483	910.31488	883.87836	727.15137	906.98883	1023.62585	550.14056	794.74274	691.32123	547.06525	1012.91833	694.21100	691.21252	906.75934	746.79944	471.12039	793.90588	612.33557	467.77817	1013.10474	623.75354	332.57947	837.35260	724.46320	338.15213	957.85785	730.70612	542.18439	901.25513	926.10181	454.20087	900.16803	837.14465	413.99387	902.58716	792.56989	371.97733	899.31873	756.61682	321.71094	898.92975	726.31134	245.56485	900.43488	622.93329	
809	4.040	510.87054	764.47626	668.14343	474.54297	695.14594	662.09283	461.20346	731.26056	723.36884	494.14810	578.17999	880.81519	547.94110	535.28705	837.98254	775.18494	744.89752	900.23480	699.24542	705.56378	972.71185	761.03198	709.19690	956.84753	518.09637	1037.03320	672.27350	468.80008	1104.00403	667.03107	465.68222	1059.31433	729.86786	479.84167	1217.63940	879.13336	529.01550	1266.94678	832.46375	763.01093	1064.11353	903.21948	670.36761	1083.89697	972.16632	745.12238	1098.29895	958.23303	715.13519	728.11145	51.86597	632.98077	776.40918	32.24574	607.57990	654.75854	41.93666	429.57718	750.36896	39.96573	527.74854	791.15668	106.81265	505.74722	695.45209	104.28529	708.41296	814.06329	402.67194	721.34448	698.72552	413.66098	411.18649	715.87158	621.18756	708.14471	1083.38110	52.23426	641.66016	1029.23853	52.08932	604.36151	1138.57910	46.33905	424.36246	1055.52637	38.94806	532.48560	1014.82574	123.57470	500.37192	1104.53381	106.09733	706.66479	1001.76221	412.56958	703.58630	1124.44702	425.50943	406.68512	1077.11511	621.31561	775.45459	911.01288	1199.59741	865.21643	832.14886	1053.29309	857.80127	990.44348	1049.25269	782.47552	910.45447	883.37415	727.55121	907.12372	1023.04321	550.33154	794.78461	691.01801	547.27887	1012.85651	693.67767	691.49335	906.87646	746.32343	471.36060	794.01904	612.06183	467.79889	1013.06921	623.33386	332.76358	837.38196	724.29425	338.32346	957.89655	730.42029	542.47870	901.43158	925.72546	454.53928	900.26489	836.75793	414.22119	902.66278	792.33893	372.18176	899.36731	756.33826	321.88126	898.91333	726.10870	245.76268	900.35706	622.65417	
810	4.045	511.05560	764.50751	668.01233	474.81622	695.19104	661.84290	461.44122	731.26532	723.16437	494.48819	578.21313	880.65955	548.29449	535.32660	837.83014	775.66052	745.10559	899.52545	699.69049	705.71851	972.21033	761.43762	709.24768	956.33661	518.15057	1037.03345	671.75946	468.94205	1103.97021	666.54657	465.88062	1059.37903	729.39990	480.01868	1217.76404	878.74213	529.38281	1267.02808	831.85126	763.45294	1064.21936	902.75977	670.69159	1084.12354	971.62335	745.52802	1098.37732	957.60437	715.14331	728.07361	51.86705	633.00024	776.41699	32.27609	607.56464	654.74225	41.93006	429.56369	750.37152	39.94969	527.72736	791.15686	106.77010	505.80194	695.44781	104.20237	708.70679	813.99780	402.63284	721.56049	698.53046	413.43430	411.45212	715.78729	621.02350	708.13373	1083.42017	52.27585	641.65570	1029.24951	52.07896	604.36572	1138.56470	46.34427	424.36349	1055.54456	38.95313	532.50446	1014.80798	123.52345	500.38181	1104.51782	106.06866	706.99573	1001.61102	412.37927	703.87323	1124.37878	425.23868	406.95795	1077.08704	620.96997	775.53937	911.03503	1198.96545	865.57770	832.26807	1052.78503	858.06824	990.54559	1048.98267	782.86591	910.68158	882.71167	728.05054	907.27704	1022.44348	550.58240	794.87451	690.72656	547.38794	1012.81244	693.34637	691.93402	907.00366	745.71033	471.69525	794.01044	611.84271	467.81906	1013.02704	622.92053	332.89615	837.40344	724.10577	338.47296	957.91052	730.18091	542.79285	901.57568	925.34338	455.32944	900.21985	836.08057	414.49542	902.73578	792.13446	372.38068	899.40924	756.16150	321.81009	898.92120	726.03143	245.98761	900.28632	622.38538	
